<svg xmlns="http://www.w3.org/2000/svg" width="640" height="640">
<rect x="310" y="130" width="10" height="10" fill="rgba(0,0,0,1.00)"/>
<rect x="320" y="130" width="10" height="10" fill="rgba(0,0,0,1.00)"/>
<rect x="300" y="140" width="10" height="10" fill="rgba(0,0,0,1.00)"/>
<rect x="330" y="140" width="10" height="10" fill="rgba(0,0,0,1.00)"/>
<rect x="300" y="150" width="10" height="10" fill="rgba(0,0,0,1.00)"/>
<rect x="330" y="150" width="10" height="10" fill="rgba(0,0,0,1.00)"/>
<rect x="300" y="160" width="10" height="10" fill="rgba(0,0,0,1.00)"/>
<rect x="330" y="160" width="10" height="10" fill="rgba(0,0,0,1.00)"/>
<rect x="290" y="170" width="10" height="10" fill="rgba(0,0,0,1.00)"/>
<rect x="340" y="170" width="10" height="10" fill="rgba(0,0,0,1.00)"/>
<rect x="280" y="180" width="10" height="10" fill="rgba(0,0,0,1.00)"/>
<rect x="350" y="180" width="10" height="10" fill="rgba(0,0,0,1.00)"/>
<rect x="270" y="190" width="10" height="10" fill="rgba(0,0,0,1.00)"/>
<rect x="360" y="190" width="10" height="10" fill="rgba(0,0,0,1.00)"/>
<rect x="270" y="200" width="10" height="10" fill="rgba(0,0,0,1.00)"/>
<rect x="360" y="200" width="10" height="10" fill="rgba(0,0,0,1.00)"/>
<rect x="260" y="210" width="10" height="10" fill="rgba(0,0,0,1.00)"/>
<rect x="370" y="210" width="10" height="10" fill="rgba(0,0,0,1.00)"/>
<rect x="260" y="220" width="10" height="10" fill="rgba(0,0,0,1.00)"/>
<rect x="370" y="220" width="10" height="10" fill="rgba(0,0,0,1.00)"/>
<rect x="260" y="230" width="10" height="10" fill="rgba(0,0,0,1.00)"/>
<rect x="370" y="230" width="10" height="10" fill="rgba(0,0,0,1.00)"/>
<rect x="260" y="240" width="10" height="10" fill="rgba(0,0,0,1.00)"/>
<rect x="370" y="240" width="10" height="10" fill="rgba(0,0,0,1.00)"/>
<rect x="270" y="250" width="10" height="10" fill="rgba(0,0,0,1.00)"/>
<rect x="360" y="250" width="10" height="10" fill="rgba(0,0,0,1.00)"/>
<rect x="280" y="260" width="10" height="10" fill="rgba(0,0,0,1.00)"/>
<rect x="350" y="260" width="10" height="10" fill="rgba(0,0,0,1.00)"/>
<rect x="280" y="270" width="10" height="10" fill="rgba(0,0,0,1.00)"/>
<rect x="350" y="270" width="10" height="10" fill="rgba(0,0,0,1.00)"/>
<rect x="280" y="280" width="10" height="10" fill="rgba(0,0,0,1.00)"/>
<rect x="350" y="280" width="10" height="10" fill="rgba(0,0,0,1.00)"/>
<rect x="270" y="290" width="10" height="10" fill="rgba(0,0,0,1.00)"/>
<rect x="360" y="290" width="10" height="10" fill="rgba(0,0,0,1.00)"/>
<rect x="260" y="300" width="10" height="10" fill="rgba(0,0,0,1.00)"/>
<rect x="370" y="300" width="10" height="10" fill="rgba(0,0,0,1.00)"/>
<rect x="260" y="310" width="10" height="10" fill="rgba(0,0,0,1.00)"/>
<rect x="370" y="310" width="10" height="10" fill="rgba(0,0,0,1.00)"/>
<rect x="270" y="320" width="10" height="10" fill="rgba(0,0,0,1.00)"/>
<rect x="280" y="320" width="10" height="10" fill="rgba(0,0,0,1.00)"/>
<rect x="350" y="320" width="10" height="10" fill="rgba(0,0,0,1.00)"/>
<rect x="360" y="320" width="10" height="10" fill="rgba(0,0,0,1.00)"/>
<rect x="290" y="330" width="10" height="10" fill="rgba(0,0,0,1.00)"/>
<rect x="340" y="330" width="10" height="10" fill="rgba(0,0,0,1.00)"/>
<rect x="290" y="340" width="10" height="10" fill="rgba(0,0,0,1.00)"/>
<rect x="340" y="340" width="10" height="10" fill="rgba(0,0,0,1.00)"/>
<rect x="290" y="350" width="10" height="10" fill="rgba(0,0,0,1.00)"/>
<rect x="340" y="350" width="10" height="10" fill="rgba(0,0,0,1.00)"/>
<rect x="290" y="360" width="10" height="10" fill="rgba(0,0,0,1.00)"/>
<rect x="340" y="360" width="10" height="10" fill="rgba(0,0,0,1.00)"/>
<rect x="280" y="370" width="10" height="10" fill="rgba(0,0,0,1.00)"/>
<rect x="350" y="370" width="10" height="10" fill="rgba(0,0,0,1.00)"/>
<rect x="270" y="380" width="10" height="10" fill="rgba(0,0,0,1.00)"/>
<rect x="360" y="380" width="10" height="10" fill="rgba(0,0,0,1.00)"/>
<rect x="270" y="390" width="10" height="10" fill="rgba(0,0,0,1.00)"/>
<rect x="360" y="390" width="10" height="10" fill="rgba(0,0,0,1.00)"/>
<rect x="260" y="400" width="10" height="10" fill="rgba(0,0,0,1.00)"/>
<rect x="370" y="400" width="10" height="10" fill="rgba(0,0,0,1.00)"/>
<rect x="250" y="410" width="10" height="10" fill="rgba(0,0,0,1.00)"/>
<rect x="380" y="410" width="10" height="10" fill="rgba(0,0,0,1.00)"/>
<rect x="250" y="420" width="10" height="10" fill="rgba(0,0,0,1.00)"/>
<rect x="380" y="420" width="10" height="10" fill="rgba(0,0,0,1.00)"/>
<rect x="240" y="430" width="10" height="10" fill="rgba(0,0,0,1.00)"/>
<rect x="390" y="430" width="10" height="10" fill="rgba(0,0,0,1.00)"/>
<rect x="240" y="440" width="10" height="10" fill="rgba(0,0,0,1.00)"/>
<rect x="390" y="440" width="10" height="10" fill="rgba(0,0,0,1.00)"/>
<rect x="230" y="450" width="10" height="10" fill="rgba(0,0,0,1.00)"/>
<rect x="400" y="450" width="10" height="10" fill="rgba(0,0,0,1.00)"/>
<rect x="230" y="460" width="10" height="10" fill="rgba(0,0,0,1.00)"/>
<rect x="400" y="460" width="10" height="10" fill="rgba(0,0,0,1.00)"/>
<rect x="240" y="470" width="10" height="10" fill="rgba(0,0,0,1.00)"/>
<rect x="390" y="470" width="10" height="10" fill="rgba(0,0,0,1.00)"/>
<rect x="240" y="480" width="10" height="10" fill="rgba(0,0,0,1.00)"/>
<rect x="390" y="480" width="10" height="10" fill="rgba(0,0,0,1.00)"/>
<rect x="250" y="490" width="10" height="10" fill="rgba(0,0,0,1.00)"/>
<rect x="260" y="490" width="10" height="10" fill="rgba(0,0,0,1.00)"/>
<rect x="370" y="490" width="10" height="10" fill="rgba(0,0,0,1.00)"/>
<rect x="380" y="490" width="10" height="10" fill="rgba(0,0,0,1.00)"/>
<rect x="270" y="500" width="10" height="10" fill="rgba(0,0,0,1.00)"/>
<rect x="280" y="500" width="10" height="10" fill="rgba(0,0,0,1.00)"/>
<rect x="290" y="500" width="10" height="10" fill="rgba(0,0,0,1.00)"/>
<rect x="300" y="500" width="10" height="10" fill="rgba(0,0,0,1.00)"/>
<rect x="310" y="500" width="10" height="10" fill="rgba(0,0,0,1.00)"/>
<rect x="320" y="500" width="10" height="10" fill="rgba(0,0,0,1.00)"/>
<rect x="330" y="500" width="10" height="10" fill="rgba(0,0,0,1.00)"/>
<rect x="340" y="500" width="10" height="10" fill="rgba(0,0,0,1.00)"/>
<rect x="350" y="500" width="10" height="10" fill="rgba(0,0,0,1.00)"/>
<rect x="360" y="500" width="10" height="10" fill="rgba(0,0,0,1.00)"/>
</svg>