<svg xmlns="http://www.w3.org/2000/svg" width="640" height="640">
<rect x="290" y="130" width="10" height="10" fill="rgba(0,0,0,1.00)"/>
<rect x="300" y="130" width="10" height="10" fill="rgba(0,0,0,1.00)"/>
<rect x="310" y="130" width="10" height="10" fill="rgba(0,0,0,1.00)"/>
<rect x="320" y="130" width="10" height="10" fill="rgba(0,0,0,1.00)"/>
<rect x="330" y="130" width="10" height="10" fill="rgba(0,0,0,1.00)"/>
<rect x="340" y="130" width="10" height="10" fill="rgba(0,0,0,1.00)"/>
<rect x="270" y="140" width="10" height="10" fill="rgba(0,0,0,1.00)"/>
<rect x="280" y="140" width="10" height="10" fill="rgba(0,0,0,1.00)"/>
<rect x="290" y="140" width="10" height="10" fill="rgba(41,51,57,1.00)"/>
<rect x="300" y="140" width="10" height="10" fill="rgba(41,51,57,1.00)"/>
<rect x="310" y="140" width="10" height="10" fill="rgba(41,51,57,1.00)"/>
<rect x="320" y="140" width="10" height="10" fill="rgba(41,51,57,1.00)"/>
<rect x="330" y="140" width="10" height="10" fill="rgba(41,51,57,1.00)"/>
<rect x="340" y="140" width="10" height="10" fill="rgba(41,51,57,1.00)"/>
<rect x="350" y="140" width="10" height="10" fill="rgba(0,0,0,1.00)"/>
<rect x="360" y="140" width="10" height="10" fill="rgba(0,0,0,1.00)"/>
<rect x="260" y="150" width="10" height="10" fill="rgba(0,0,0,1.00)"/>
<rect x="270" y="150" width="10" height="10" fill="rgba(41,51,57,1.00)"/>
<rect x="280" y="150" width="10" height="10" fill="rgba(73,82,90,1.00)"/>
<rect x="290" y="150" width="10" height="10" fill="rgba(73,82,90,1.00)"/>
<rect x="300" y="150" width="10" height="10" fill="rgba(73,82,90,1.00)"/>
<rect x="310" y="150" width="10" height="10" fill="rgba(73,82,90,1.00)"/>
<rect x="320" y="150" width="10" height="10" fill="rgba(41,51,57,1.00)"/>
<rect x="330" y="150" width="10" height="10" fill="rgba(41,51,57,1.00)"/>
<rect x="340" y="150" width="10" height="10" fill="rgba(41,51,57,1.00)"/>
<rect x="350" y="150" width="10" height="10" fill="rgba(41,51,57,1.00)"/>
<rect x="360" y="150" width="10" height="10" fill="rgba(20,27,39,1.00)"/>
<rect x="370" y="150" width="10" height="10" fill="rgba(0,0,0,1.00)"/>
<rect x="260" y="160" width="10" height="10" fill="rgba(0,0,0,1.00)"/>
<rect x="270" y="160" width="10" height="10" fill="rgba(41,51,57,1.00)"/>
<rect x="280" y="160" width="10" height="10" fill="rgba(73,82,90,1.00)"/>
<rect x="290" y="160" width="10" height="10" fill="rgba(199,187,167,1.00)"/>
<rect x="300" y="160" width="10" height="10" fill="rgba(199,187,167,1.00)"/>
<rect x="310" y="160" width="10" height="10" fill="rgba(73,82,90,1.00)"/>
<rect x="320" y="160" width="10" height="10" fill="rgba(73,82,90,1.00)"/>
<rect x="330" y="160" width="10" height="10" fill="rgba(41,51,57,1.00)"/>
<rect x="340" y="160" width="10" height="10" fill="rgba(41,51,57,1.00)"/>
<rect x="350" y="160" width="10" height="10" fill="rgba(41,51,57,1.00)"/>
<rect x="360" y="160" width="10" height="10" fill="rgba(20,27,39,1.00)"/>
<rect x="370" y="160" width="10" height="10" fill="rgba(0,0,0,1.00)"/>
<rect x="250" y="170" width="10" height="10" fill="rgba(0,0,0,1.00)"/>
<rect x="260" y="170" width="10" height="10" fill="rgba(41,51,57,1.00)"/>
<rect x="270" y="170" width="10" height="10" fill="rgba(73,82,90,1.00)"/>
<rect x="280" y="170" width="10" height="10" fill="rgba(199,187,167,1.00)"/>
<rect x="290" y="170" width="10" height="10" fill="rgba(199,187,167,1.00)"/>
<rect x="300" y="170" width="10" height="10" fill="rgba(199,187,167,1.00)"/>
<rect x="310" y="170" width="10" height="10" fill="rgba(73,82,90,1.00)"/>
<rect x="320" y="170" width="10" height="10" fill="rgba(73,82,90,1.00)"/>
<rect x="330" y="170" width="10" height="10" fill="rgba(41,51,57,1.00)"/>
<rect x="340" y="170" width="10" height="10" fill="rgba(41,51,57,1.00)"/>
<rect x="350" y="170" width="10" height="10" fill="rgba(41,51,57,1.00)"/>
<rect x="360" y="170" width="10" height="10" fill="rgba(41,51,57,1.00)"/>
<rect x="370" y="170" width="10" height="10" fill="rgba(20,27,39,1.00)"/>
<rect x="380" y="170" width="10" height="10" fill="rgba(0,0,0,1.00)"/>
<rect x="250" y="180" width="10" height="10" fill="rgba(0,0,0,1.00)"/>
<rect x="260" y="180" width="10" height="10" fill="rgba(41,51,57,1.00)"/>
<rect x="270" y="180" width="10" height="10" fill="rgba(73,82,90,1.00)"/>
<rect x="280" y="180" width="10" height="10" fill="rgba(73,82,90,1.00)"/>
<rect x="290" y="180" width="10" height="10" fill="rgba(199,187,167,1.00)"/>
<rect x="300" y="180" width="10" height="10" fill="rgba(73,82,90,1.00)"/>
<rect x="310" y="180" width="10" height="10" fill="rgba(73,82,90,1.00)"/>
<rect x="320" y="180" width="10" height="10" fill="rgba(41,51,57,1.00)"/>
<rect x="330" y="180" width="10" height="10" fill="rgba(41,51,57,1.00)"/>
<rect x="340" y="180" width="10" height="10" fill="rgba(41,51,57,1.00)"/>
<rect x="350" y="180" width="10" height="10" fill="rgba(41,51,57,1.00)"/>
<rect x="360" y="180" width="10" height="10" fill="rgba(41,51,57,1.00)"/>
<rect x="370" y="180" width="10" height="10" fill="rgba(41,51,57,1.00)"/>
<rect x="380" y="180" width="10" height="10" fill="rgba(0,0,0,1.00)"/>
<rect x="250" y="190" width="10" height="10" fill="rgba(0,0,0,1.00)"/>
<rect x="260" y="190" width="10" height="10" fill="rgba(41,51,57,1.00)"/>
<rect x="270" y="190" width="10" height="10" fill="rgba(73,82,90,1.00)"/>
<rect x="280" y="190" width="10" height="10" fill="rgba(73,82,90,1.00)"/>
<rect x="290" y="190" width="10" height="10" fill="rgba(73,82,90,1.00)"/>
<rect x="300" y="190" width="10" height="10" fill="rgba(73,82,90,1.00)"/>
<rect x="310" y="190" width="10" height="10" fill="rgba(41,51,57,1.00)"/>
<rect x="320" y="190" width="10" height="10" fill="rgba(41,51,57,1.00)"/>
<rect x="330" y="190" width="10" height="10" fill="rgba(41,51,57,1.00)"/>
<rect x="340" y="190" width="10" height="10" fill="rgba(41,51,57,1.00)"/>
<rect x="350" y="190" width="10" height="10" fill="rgba(41,51,57,1.00)"/>
<rect x="360" y="190" width="10" height="10" fill="rgba(20,27,39,1.00)"/>
<rect x="370" y="190" width="10" height="10" fill="rgba(20,27,39,1.00)"/>
<rect x="380" y="190" width="10" height="10" fill="rgba(0,0,0,1.00)"/>
<rect x="250" y="200" width="10" height="10" fill="rgba(0,0,0,1.00)"/>
<rect x="260" y="200" width="10" height="10" fill="rgba(41,51,57,1.00)"/>
<rect x="270" y="200" width="10" height="10" fill="rgba(41,51,57,1.00)"/>
<rect x="280" y="200" width="10" height="10" fill="rgba(73,82,90,1.00)"/>
<rect x="290" y="200" width="10" height="10" fill="rgba(73,82,90,1.00)"/>
<rect x="300" y="200" width="10" height="10" fill="rgba(41,51,57,1.00)"/>
<rect x="310" y="200" width="10" height="10" fill="rgba(41,51,57,1.00)"/>
<rect x="320" y="200" width="10" height="10" fill="rgba(41,51,57,1.00)"/>
<rect x="330" y="200" width="10" height="10" fill="rgba(41,51,57,1.00)"/>
<rect x="340" y="200" width="10" height="10" fill="rgba(41,51,57,1.00)"/>
<rect x="350" y="200" width="10" height="10" fill="rgba(41,51,57,1.00)"/>
<rect x="360" y="200" width="10" height="10" fill="rgba(20,27,39,1.00)"/>
<rect x="370" y="200" width="10" height="10" fill="rgba(20,27,39,1.00)"/>
<rect x="380" y="200" width="10" height="10" fill="rgba(0,0,0,1.00)"/>
<rect x="250" y="210" width="10" height="10" fill="rgba(0,0,0,1.00)"/>
<rect x="260" y="210" width="10" height="10" fill="rgba(41,51,57,1.00)"/>
<rect x="270" y="210" width="10" height="10" fill="rgba(41,51,57,1.00)"/>
<rect x="280" y="210" width="10" height="10" fill="rgba(41,51,57,1.00)"/>
<rect x="290" y="210" width="10" height="10" fill="rgba(41,51,57,1.00)"/>
<rect x="300" y="210" width="10" height="10" fill="rgba(41,51,57,1.00)"/>
<rect x="310" y="210" width="10" height="10" fill="rgba(41,51,57,1.00)"/>
<rect x="320" y="210" width="10" height="10" fill="rgba(41,51,57,1.00)"/>
<rect x="330" y="210" width="10" height="10" fill="rgba(41,51,57,1.00)"/>
<rect x="340" y="210" width="10" height="10" fill="rgba(41,51,57,1.00)"/>
<rect x="350" y="210" width="10" height="10" fill="rgba(41,51,57,1.00)"/>
<rect x="360" y="210" width="10" height="10" fill="rgba(20,27,39,1.00)"/>
<rect x="370" y="210" width="10" height="10" fill="rgba(20,27,39,1.00)"/>
<rect x="380" y="210" width="10" height="10" fill="rgba(0,0,0,1.00)"/>
<rect x="250" y="220" width="10" height="10" fill="rgba(0,0,0,1.00)"/>
<rect x="260" y="220" width="10" height="10" fill="rgba(20,27,39,1.00)"/>
<rect x="270" y="220" width="10" height="10" fill="rgba(41,51,57,1.00)"/>
<rect x="280" y="220" width="10" height="10" fill="rgba(41,51,57,1.00)"/>
<rect x="290" y="220" width="10" height="10" fill="rgba(41,51,57,1.00)"/>
<rect x="300" y="220" width="10" height="10" fill="rgba(41,51,57,1.00)"/>
<rect x="310" y="220" width="10" height="10" fill="rgba(41,51,57,1.00)"/>
<rect x="320" y="220" width="10" height="10" fill="rgba(41,51,57,1.00)"/>
<rect x="330" y="220" width="10" height="10" fill="rgba(41,51,57,1.00)"/>
<rect x="340" y="220" width="10" height="10" fill="rgba(41,51,57,1.00)"/>
<rect x="350" y="220" width="10" height="10" fill="rgba(20,27,39,1.00)"/>
<rect x="360" y="220" width="10" height="10" fill="rgba(20,27,39,1.00)"/>
<rect x="370" y="220" width="10" height="10" fill="rgba(20,27,39,1.00)"/>
<rect x="380" y="220" width="10" height="10" fill="rgba(0,0,0,1.00)"/>
<rect x="260" y="230" width="10" height="10" fill="rgba(0,0,0,1.00)"/>
<rect x="270" y="230" width="10" height="10" fill="rgba(20,27,39,1.00)"/>
<rect x="280" y="230" width="10" height="10" fill="rgba(20,27,39,1.00)"/>
<rect x="290" y="230" width="10" height="10" fill="rgba(41,51,57,1.00)"/>
<rect x="300" y="230" width="10" height="10" fill="rgba(41,51,57,1.00)"/>
<rect x="310" y="230" width="10" height="10" fill="rgba(41,51,57,1.00)"/>
<rect x="320" y="230" width="10" height="10" fill="rgba(41,51,57,1.00)"/>
<rect x="330" y="230" width="10" height="10" fill="rgba(20,27,39,1.00)"/>
<rect x="340" y="230" width="10" height="10" fill="rgba(20,27,39,1.00)"/>
<rect x="350" y="230" width="10" height="10" fill="rgba(20,27,39,1.00)"/>
<rect x="360" y="230" width="10" height="10" fill="rgba(20,27,39,1.00)"/>
<rect x="370" y="230" width="10" height="10" fill="rgba(0,0,0,1.00)"/>
<rect x="270" y="240" width="10" height="10" fill="rgba(0,0,0,1.00)"/>
<rect x="280" y="240" width="10" height="10" fill="rgba(20,27,39,1.00)"/>
<rect x="290" y="240" width="10" height="10" fill="rgba(20,27,39,1.00)"/>
<rect x="300" y="240" width="10" height="10" fill="rgba(20,27,39,1.00)"/>
<rect x="310" y="240" width="10" height="10" fill="rgba(20,27,39,1.00)"/>
<rect x="320" y="240" width="10" height="10" fill="rgba(20,27,39,1.00)"/>
<rect x="330" y="240" width="10" height="10" fill="rgba(20,27,39,1.00)"/>
<rect x="340" y="240" width="10" height="10" fill="rgba(20,27,39,1.00)"/>
<rect x="350" y="240" width="10" height="10" fill="rgba(20,27,39,1.00)"/>
<rect x="360" y="240" width="10" height="10" fill="rgba(0,0,0,1.00)"/>
<rect x="260" y="250" width="10" height="10" fill="rgba(0,0,0,1.00)"/>
<rect x="270" y="250" width="10" height="10" fill="rgba(0,0,0,1.00)"/>
<rect x="280" y="250" width="10" height="10" fill="rgba(0,0,0,1.00)"/>
<rect x="290" y="250" width="10" height="10" fill="rgba(20,27,39,1.00)"/>
<rect x="300" y="250" width="10" height="10" fill="rgba(20,27,39,1.00)"/>
<rect x="310" y="250" width="10" height="10" fill="rgba(20,27,39,1.00)"/>
<rect x="320" y="250" width="10" height="10" fill="rgba(20,27,39,1.00)"/>
<rect x="330" y="250" width="10" height="10" fill="rgba(20,27,39,1.00)"/>
<rect x="340" y="250" width="10" height="10" fill="rgba(20,27,39,1.00)"/>
<rect x="350" y="250" width="10" height="10" fill="rgba(0,0,0,1.00)"/>
<rect x="360" y="250" width="10" height="10" fill="rgba(0,0,0,1.00)"/>
<rect x="370" y="250" width="10" height="10" fill="rgba(0,0,0,1.00)"/>
<rect x="250" y="260" width="10" height="10" fill="rgba(0,0,0,1.00)"/>
<rect x="260" y="260" width="10" height="10" fill="rgba(41,51,57,1.00)"/>
<rect x="270" y="260" width="10" height="10" fill="rgba(41,51,57,1.00)"/>
<rect x="280" y="260" width="10" height="10" fill="rgba(20,27,39,1.00)"/>
<rect x="290" y="260" width="10" height="10" fill="rgba(0,0,0,1.00)"/>
<rect x="300" y="260" width="10" height="10" fill="rgba(0,0,0,1.00)"/>
<rect x="310" y="260" width="10" height="10" fill="rgba(0,0,0,1.00)"/>
<rect x="320" y="260" width="10" height="10" fill="rgba(0,0,0,1.00)"/>
<rect x="330" y="260" width="10" height="10" fill="rgba(0,0,0,1.00)"/>
<rect x="340" y="260" width="10" height="10" fill="rgba(0,0,0,1.00)"/>
<rect x="350" y="260" width="10" height="10" fill="rgba(41,51,57,1.00)"/>
<rect x="360" y="260" width="10" height="10" fill="rgba(20,27,39,1.00)"/>
<rect x="370" y="260" width="10" height="10" fill="rgba(20,27,39,1.00)"/>
<rect x="380" y="260" width="10" height="10" fill="rgba(0,0,0,1.00)"/>
<rect x="250" y="270" width="10" height="10" fill="rgba(0,0,0,1.00)"/>
<rect x="260" y="270" width="10" height="10" fill="rgba(41,51,57,1.00)"/>
<rect x="270" y="270" width="10" height="10" fill="rgba(73,82,90,1.00)"/>
<rect x="280" y="270" width="10" height="10" fill="rgba(73,82,90,1.00)"/>
<rect x="290" y="270" width="10" height="10" fill="rgba(41,51,57,1.00)"/>
<rect x="300" y="270" width="10" height="10" fill="rgba(41,51,57,1.00)"/>
<rect x="310" y="270" width="10" height="10" fill="rgba(41,51,57,1.00)"/>
<rect x="320" y="270" width="10" height="10" fill="rgba(20,27,39,1.00)"/>
<rect x="330" y="270" width="10" height="10" fill="rgba(20,27,39,1.00)"/>
<rect x="340" y="270" width="10" height="10" fill="rgba(20,27,39,1.00)"/>
<rect x="350" y="270" width="10" height="10" fill="rgba(41,51,57,1.00)"/>
<rect x="360" y="270" width="10" height="10" fill="rgba(41,51,57,1.00)"/>
<rect x="370" y="270" width="10" height="10" fill="rgba(20,27,39,1.00)"/>
<rect x="380" y="270" width="10" height="10" fill="rgba(0,0,0,1.00)"/>
<rect x="260" y="280" width="10" height="10" fill="rgba(0,0,0,1.00)"/>
<rect x="270" y="280" width="10" height="10" fill="rgba(73,82,90,1.00)"/>
<rect x="280" y="280" width="10" height="10" fill="rgba(199,187,167,1.00)"/>
<rect x="290" y="280" width="10" height="10" fill="rgba(73,82,90,1.00)"/>
<rect x="300" y="280" width="10" height="10" fill="rgba(73,82,90,1.00)"/>
<rect x="310" y="280" width="10" height="10" fill="rgba(73,82,90,1.00)"/>
<rect x="320" y="280" width="10" height="10" fill="rgba(73,82,90,1.00)"/>
<rect x="330" y="280" width="10" height="10" fill="rgba(73,82,90,1.00)"/>
<rect x="340" y="280" width="10" height="10" fill="rgba(41,51,57,1.00)"/>
<rect x="350" y="280" width="10" height="10" fill="rgba(41,51,57,1.00)"/>
<rect x="360" y="280" width="10" height="10" fill="rgba(41,51,57,1.00)"/>
<rect x="370" y="280" width="10" height="10" fill="rgba(0,0,0,1.00)"/>
<rect x="270" y="290" width="10" height="10" fill="rgba(0,0,0,1.00)"/>
<rect x="280" y="290" width="10" height="10" fill="rgba(41,51,57,1.00)"/>
<rect x="290" y="290" width="10" height="10" fill="rgba(41,51,57,1.00)"/>
<rect x="300" y="290" width="10" height="10" fill="rgba(41,51,57,1.00)"/>
<rect x="310" y="290" width="10" height="10" fill="rgba(41,51,57,1.00)"/>
<rect x="320" y="290" width="10" height="10" fill="rgba(41,51,57,1.00)"/>
<rect x="330" y="290" width="10" height="10" fill="rgba(20,27,39,1.00)"/>
<rect x="340" y="290" width="10" height="10" fill="rgba(20,27,39,1.00)"/>
<rect x="350" y="290" width="10" height="10" fill="rgba(20,27,39,1.00)"/>
<rect x="360" y="290" width="10" height="10" fill="rgba(0,0,0,1.00)"/>
<rect x="280" y="300" width="10" height="10" fill="rgba(0,0,0,1.00)"/>
<rect x="290" y="300" width="10" height="10" fill="rgba(0,0,0,1.00)"/>
<rect x="300" y="300" width="10" height="10" fill="rgba(0,0,0,1.00)"/>
<rect x="310" y="300" width="10" height="10" fill="rgba(0,0,0,1.00)"/>
<rect x="320" y="300" width="10" height="10" fill="rgba(0,0,0,1.00)"/>
<rect x="330" y="300" width="10" height="10" fill="rgba(0,0,0,1.00)"/>
<rect x="340" y="300" width="10" height="10" fill="rgba(0,0,0,1.00)"/>
<rect x="350" y="300" width="10" height="10" fill="rgba(0,0,0,1.00)"/>
<rect x="280" y="310" width="10" height="10" fill="rgba(0,0,0,1.00)"/>
<rect x="290" y="310" width="10" height="10" fill="rgba(20,27,39,1.00)"/>
<rect x="300" y="310" width="10" height="10" fill="rgba(20,27,39,1.00)"/>
<rect x="310" y="310" width="10" height="10" fill="rgba(20,27,39,1.00)"/>
<rect x="320" y="310" width="10" height="10" fill="rgba(20,27,39,1.00)"/>
<rect x="330" y="310" width="10" height="10" fill="rgba(20,27,39,1.00)"/>
<rect x="340" y="310" width="10" height="10" fill="rgba(20,27,39,1.00)"/>
<rect x="350" y="310" width="10" height="10" fill="rgba(0,0,0,1.00)"/>
<rect x="280" y="320" width="10" height="10" fill="rgba(0,0,0,1.00)"/>
<rect x="290" y="320" width="10" height="10" fill="rgba(41,51,57,1.00)"/>
<rect x="300" y="320" width="10" height="10" fill="rgba(41,51,57,1.00)"/>
<rect x="310" y="320" width="10" height="10" fill="rgba(20,27,39,1.00)"/>
<rect x="320" y="320" width="10" height="10" fill="rgba(20,27,39,1.00)"/>
<rect x="330" y="320" width="10" height="10" fill="rgba(20,27,39,1.00)"/>
<rect x="340" y="320" width="10" height="10" fill="rgba(20,27,39,1.00)"/>
<rect x="350" y="320" width="10" height="10" fill="rgba(0,0,0,1.00)"/>
<rect x="270" y="330" width="10" height="10" fill="rgba(0,0,0,1.00)"/>
<rect x="280" y="330" width="10" height="10" fill="rgba(41,51,57,1.00)"/>
<rect x="290" y="330" width="10" height="10" fill="rgba(41,51,57,1.00)"/>
<rect x="300" y="330" width="10" height="10" fill="rgba(41,51,57,1.00)"/>
<rect x="310" y="330" width="10" height="10" fill="rgba(41,51,57,1.00)"/>
<rect x="320" y="330" width="10" height="10" fill="rgba(20,27,39,1.00)"/>
<rect x="330" y="330" width="10" height="10" fill="rgba(20,27,39,1.00)"/>
<rect x="340" y="330" width="10" height="10" fill="rgba(20,27,39,1.00)"/>
<rect x="350" y="330" width="10" height="10" fill="rgba(20,27,39,1.00)"/>
<rect x="360" y="330" width="10" height="10" fill="rgba(0,0,0,1.00)"/>
<rect x="270" y="340" width="10" height="10" fill="rgba(0,0,0,1.00)"/>
<rect x="280" y="340" width="10" height="10" fill="rgba(41,51,57,1.00)"/>
<rect x="290" y="340" width="10" height="10" fill="rgba(41,51,57,1.00)"/>
<rect x="300" y="340" width="10" height="10" fill="rgba(41,51,57,1.00)"/>
<rect x="310" y="340" width="10" height="10" fill="rgba(41,51,57,1.00)"/>
<rect x="320" y="340" width="10" height="10" fill="rgba(20,27,39,1.00)"/>
<rect x="330" y="340" width="10" height="10" fill="rgba(20,27,39,1.00)"/>
<rect x="340" y="340" width="10" height="10" fill="rgba(20,27,39,1.00)"/>
<rect x="350" y="340" width="10" height="10" fill="rgba(20,27,39,1.00)"/>
<rect x="360" y="340" width="10" height="10" fill="rgba(0,0,0,1.00)"/>
<rect x="260" y="350" width="10" height="10" fill="rgba(0,0,0,1.00)"/>
<rect x="270" y="350" width="10" height="10" fill="rgba(20,27,39,1.00)"/>
<rect x="280" y="350" width="10" height="10" fill="rgba(41,51,57,1.00)"/>
<rect x="290" y="350" width="10" height="10" fill="rgba(73,82,90,1.00)"/>
<rect x="300" y="350" width="10" height="10" fill="rgba(41,51,57,1.00)"/>
<rect x="310" y="350" width="10" height="10" fill="rgba(41,51,57,1.00)"/>
<rect x="320" y="350" width="10" height="10" fill="rgba(41,51,57,1.00)"/>
<rect x="330" y="350" width="10" height="10" fill="rgba(20,27,39,1.00)"/>
<rect x="340" y="350" width="10" height="10" fill="rgba(20,27,39,1.00)"/>
<rect x="350" y="350" width="10" height="10" fill="rgba(20,27,39,1.00)"/>
<rect x="360" y="350" width="10" height="10" fill="rgba(20,27,39,1.00)"/>
<rect x="370" y="350" width="10" height="10" fill="rgba(0,0,0,1.00)"/>
<rect x="250" y="360" width="10" height="10" fill="rgba(0,0,0,1.00)"/>
<rect x="260" y="360" width="10" height="10" fill="rgba(20,27,39,1.00)"/>
<rect x="270" y="360" width="10" height="10" fill="rgba(41,51,57,1.00)"/>
<rect x="280" y="360" width="10" height="10" fill="rgba(41,51,57,1.00)"/>
<rect x="290" y="360" width="10" height="10" fill="rgba(73,82,90,1.00)"/>
<rect x="300" y="360" width="10" height="10" fill="rgba(41,51,57,1.00)"/>
<rect x="310" y="360" width="10" height="10" fill="rgba(41,51,57,1.00)"/>
<rect x="320" y="360" width="10" height="10" fill="rgba(41,51,57,1.00)"/>
<rect x="330" y="360" width="10" height="10" fill="rgba(20,27,39,1.00)"/>
<rect x="340" y="360" width="10" height="10" fill="rgba(20,27,39,1.00)"/>
<rect x="350" y="360" width="10" height="10" fill="rgba(20,27,39,1.00)"/>
<rect x="360" y="360" width="10" height="10" fill="rgba(20,27,39,1.00)"/>
<rect x="370" y="360" width="10" height="10" fill="rgba(20,27,39,1.00)"/>
<rect x="380" y="360" width="10" height="10" fill="rgba(0,0,0,1.00)"/>
<rect x="240" y="370" width="10" height="10" fill="rgba(0,0,0,1.00)"/>
<rect x="250" y="370" width="10" height="10" fill="rgba(41,51,57,1.00)"/>
<rect x="260" y="370" width="10" height="10" fill="rgba(41,51,57,1.00)"/>
<rect x="270" y="370" width="10" height="10" fill="rgba(41,51,57,1.00)"/>
<rect x="280" y="370" width="10" height="10" fill="rgba(73,82,90,1.00)"/>
<rect x="290" y="370" width="10" height="10" fill="rgba(41,51,57,1.00)"/>
<rect x="300" y="370" width="10" height="10" fill="rgba(41,51,57,1.00)"/>
<rect x="310" y="370" width="10" height="10" fill="rgba(41,51,57,1.00)"/>
<rect x="320" y="370" width="10" height="10" fill="rgba(41,51,57,1.00)"/>
<rect x="330" y="370" width="10" height="10" fill="rgba(41,51,57,1.00)"/>
<rect x="340" y="370" width="10" height="10" fill="rgba(20,27,39,1.00)"/>
<rect x="350" y="370" width="10" height="10" fill="rgba(20,27,39,1.00)"/>
<rect x="360" y="370" width="10" height="10" fill="rgba(20,27,39,1.00)"/>
<rect x="370" y="370" width="10" height="10" fill="rgba(20,27,39,1.00)"/>
<rect x="380" y="370" width="10" height="10" fill="rgba(20,27,39,1.00)"/>
<rect x="390" y="370" width="10" height="10" fill="rgba(0,0,0,1.00)"/>
<rect x="240" y="380" width="10" height="10" fill="rgba(0,0,0,1.00)"/>
<rect x="250" y="380" width="10" height="10" fill="rgba(73,82,90,1.00)"/>
<rect x="260" y="380" width="10" height="10" fill="rgba(73,82,90,1.00)"/>
<rect x="270" y="380" width="10" height="10" fill="rgba(41,51,57,1.00)"/>
<rect x="280" y="380" width="10" height="10" fill="rgba(41,51,57,1.00)"/>
<rect x="290" y="380" width="10" height="10" fill="rgba(41,51,57,1.00)"/>
<rect x="300" y="380" width="10" height="10" fill="rgba(41,51,57,1.00)"/>
<rect x="310" y="380" width="10" height="10" fill="rgba(41,51,57,1.00)"/>
<rect x="320" y="380" width="10" height="10" fill="rgba(20,27,39,1.00)"/>
<rect x="330" y="380" width="10" height="10" fill="rgba(20,27,39,1.00)"/>
<rect x="340" y="380" width="10" height="10" fill="rgba(20,27,39,1.00)"/>
<rect x="350" y="380" width="10" height="10" fill="rgba(20,27,39,1.00)"/>
<rect x="360" y="380" width="10" height="10" fill="rgba(20,27,39,1.00)"/>
<rect x="370" y="380" width="10" height="10" fill="rgba(41,51,57,1.00)"/>
<rect x="380" y="380" width="10" height="10" fill="rgba(20,27,39,1.00)"/>
<rect x="390" y="380" width="10" height="10" fill="rgba(0,0,0,1.00)"/>
<rect x="230" y="390" width="10" height="10" fill="rgba(0,0,0,1.00)"/>
<rect x="240" y="390" width="10" height="10" fill="rgba(20,27,39,1.00)"/>
<rect x="250" y="390" width="10" height="10" fill="rgba(0,0,0,1.00)"/>
<rect x="260" y="390" width="10" height="10" fill="rgba(73,82,90,1.00)"/>
<rect x="270" y="390" width="10" height="10" fill="rgba(199,187,167,1.00)"/>
<rect x="280" y="390" width="10" height="10" fill="rgba(199,187,167,1.00)"/>
<rect x="290" y="390" width="10" height="10" fill="rgba(73,82,90,1.00)"/>
<rect x="300" y="390" width="10" height="10" fill="rgba(41,51,57,1.00)"/>
<rect x="310" y="390" width="10" height="10" fill="rgba(41,51,57,1.00)"/>
<rect x="320" y="390" width="10" height="10" fill="rgba(41,51,57,1.00)"/>
<rect x="330" y="390" width="10" height="10" fill="rgba(41,51,57,1.00)"/>
<rect x="340" y="390" width="10" height="10" fill="rgba(41,51,57,1.00)"/>
<rect x="350" y="390" width="10" height="10" fill="rgba(41,51,57,1.00)"/>
<rect x="360" y="390" width="10" height="10" fill="rgba(41,51,57,1.00)"/>
<rect x="370" y="390" width="10" height="10" fill="rgba(20,27,39,1.00)"/>
<rect x="380" y="390" width="10" height="10" fill="rgba(0,0,0,1.00)"/>
<rect x="390" y="390" width="10" height="10" fill="rgba(20,27,39,1.00)"/>
<rect x="400" y="390" width="10" height="10" fill="rgba(0,0,0,1.00)"/>
<rect x="220" y="400" width="10" height="10" fill="rgba(0,0,0,1.00)"/>
<rect x="230" y="400" width="10" height="10" fill="rgba(41,51,57,1.00)"/>
<rect x="240" y="400" width="10" height="10" fill="rgba(20,27,39,1.00)"/>
<rect x="250" y="400" width="10" height="10" fill="rgba(20,27,39,1.00)"/>
<rect x="260" y="400" width="10" height="10" fill="rgba(0,0,0,1.00)"/>
<rect x="270" y="400" width="10" height="10" fill="rgba(0,0,0,1.00)"/>
<rect x="280" y="400" width="10" height="10" fill="rgba(20,27,39,1.00)"/>
<rect x="290" y="400" width="10" height="10" fill="rgba(20,27,39,1.00)"/>
<rect x="300" y="400" width="10" height="10" fill="rgba(20,27,39,1.00)"/>
<rect x="310" y="400" width="10" height="10" fill="rgba(20,27,39,1.00)"/>
<rect x="320" y="400" width="10" height="10" fill="rgba(20,27,39,1.00)"/>
<rect x="330" y="400" width="10" height="10" fill="rgba(20,27,39,1.00)"/>
<rect x="340" y="400" width="10" height="10" fill="rgba(20,27,39,1.00)"/>
<rect x="350" y="400" width="10" height="10" fill="rgba(20,27,39,1.00)"/>
<rect x="360" y="400" width="10" height="10" fill="rgba(0,0,0,1.00)"/>
<rect x="370" y="400" width="10" height="10" fill="rgba(0,0,0,1.00)"/>
<rect x="380" y="400" width="10" height="10" fill="rgba(20,27,39,1.00)"/>
<rect x="390" y="400" width="10" height="10" fill="rgba(20,27,39,1.00)"/>
<rect x="400" y="400" width="10" height="10" fill="rgba(20,27,39,1.00)"/>
<rect x="410" y="400" width="10" height="10" fill="rgba(0,0,0,1.00)"/>
<rect x="210" y="410" width="10" height="10" fill="rgba(0,0,0,1.00)"/>
<rect x="220" y="410" width="10" height="10" fill="rgba(41,51,57,1.00)"/>
<rect x="230" y="410" width="10" height="10" fill="rgba(41,51,57,1.00)"/>
<rect x="240" y="410" width="10" height="10" fill="rgba(41,51,57,1.00)"/>
<rect x="250" y="410" width="10" height="10" fill="rgba(41,51,57,1.00)"/>
<rect x="260" y="410" width="10" height="10" fill="rgba(20,27,39,1.00)"/>
<rect x="270" y="410" width="10" height="10" fill="rgba(20,27,39,1.00)"/>
<rect x="280" y="410" width="10" height="10" fill="rgba(0,0,0,1.00)"/>
<rect x="290" y="410" width="10" height="10" fill="rgba(0,0,0,1.00)"/>
<rect x="300" y="410" width="10" height="10" fill="rgba(0,0,0,1.00)"/>
<rect x="310" y="410" width="10" height="10" fill="rgba(0,0,0,1.00)"/>
<rect x="320" y="410" width="10" height="10" fill="rgba(0,0,0,1.00)"/>
<rect x="330" y="410" width="10" height="10" fill="rgba(0,0,0,1.00)"/>
<rect x="340" y="410" width="10" height="10" fill="rgba(0,0,0,1.00)"/>
<rect x="350" y="410" width="10" height="10" fill="rgba(0,0,0,1.00)"/>
<rect x="360" y="410" width="10" height="10" fill="rgba(20,27,39,1.00)"/>
<rect x="370" y="410" width="10" height="10" fill="rgba(20,27,39,1.00)"/>
<rect x="380" y="410" width="10" height="10" fill="rgba(20,27,39,1.00)"/>
<rect x="390" y="410" width="10" height="10" fill="rgba(20,27,39,1.00)"/>
<rect x="400" y="410" width="10" height="10" fill="rgba(20,27,39,1.00)"/>
<rect x="410" y="410" width="10" height="10" fill="rgba(20,27,39,1.00)"/>
<rect x="420" y="410" width="10" height="10" fill="rgba(0,0,0,1.00)"/>
<rect x="210" y="420" width="10" height="10" fill="rgba(0,0,0,1.00)"/>
<rect x="220" y="420" width="10" height="10" fill="rgba(41,51,57,1.00)"/>
<rect x="230" y="420" width="10" height="10" fill="rgba(41,51,57,1.00)"/>
<rect x="240" y="420" width="10" height="10" fill="rgba(73,82,90,1.00)"/>
<rect x="250" y="420" width="10" height="10" fill="rgba(73,82,90,1.00)"/>
<rect x="260" y="420" width="10" height="10" fill="rgba(73,82,90,1.00)"/>
<rect x="270" y="420" width="10" height="10" fill="rgba(73,82,90,1.00)"/>
<rect x="280" y="420" width="10" height="10" fill="rgba(41,51,57,1.00)"/>
<rect x="290" y="420" width="10" height="10" fill="rgba(41,51,57,1.00)"/>
<rect x="300" y="420" width="10" height="10" fill="rgba(20,27,39,1.00)"/>
<rect x="310" y="420" width="10" height="10" fill="rgba(20,27,39,1.00)"/>
<rect x="320" y="420" width="10" height="10" fill="rgba(41,51,57,1.00)"/>
<rect x="330" y="420" width="10" height="10" fill="rgba(41,51,57,1.00)"/>
<rect x="340" y="420" width="10" height="10" fill="rgba(41,51,57,1.00)"/>
<rect x="350" y="420" width="10" height="10" fill="rgba(41,51,57,1.00)"/>
<rect x="360" y="420" width="10" height="10" fill="rgba(41,51,57,1.00)"/>
<rect x="370" y="420" width="10" height="10" fill="rgba(41,51,57,1.00)"/>
<rect x="380" y="420" width="10" height="10" fill="rgba(41,51,57,1.00)"/>
<rect x="390" y="420" width="10" height="10" fill="rgba(20,27,39,1.00)"/>
<rect x="400" y="420" width="10" height="10" fill="rgba(20,27,39,1.00)"/>
<rect x="410" y="420" width="10" height="10" fill="rgba(20,27,39,1.00)"/>
<rect x="420" y="420" width="10" height="10" fill="rgba(0,0,0,1.00)"/>
<rect x="210" y="430" width="10" height="10" fill="rgba(0,0,0,1.00)"/>
<rect x="220" y="430" width="10" height="10" fill="rgba(41,51,57,1.00)"/>
<rect x="230" y="430" width="10" height="10" fill="rgba(41,51,57,1.00)"/>
<rect x="240" y="430" width="10" height="10" fill="rgba(73,82,90,1.00)"/>
<rect x="250" y="430" width="10" height="10" fill="rgba(199,187,167,1.00)"/>
<rect x="260" y="430" width="10" height="10" fill="rgba(199,187,167,1.00)"/>
<rect x="270" y="430" width="10" height="10" fill="rgba(73,82,90,1.00)"/>
<rect x="280" y="430" width="10" height="10" fill="rgba(73,82,90,1.00)"/>
<rect x="290" y="430" width="10" height="10" fill="rgba(73,82,90,1.00)"/>
<rect x="300" y="430" width="10" height="10" fill="rgba(73,82,90,1.00)"/>
<rect x="310" y="430" width="10" height="10" fill="rgba(41,51,57,1.00)"/>
<rect x="320" y="430" width="10" height="10" fill="rgba(41,51,57,1.00)"/>
<rect x="330" y="430" width="10" height="10" fill="rgba(41,51,57,1.00)"/>
<rect x="340" y="430" width="10" height="10" fill="rgba(41,51,57,1.00)"/>
<rect x="350" y="430" width="10" height="10" fill="rgba(41,51,57,1.00)"/>
<rect x="360" y="430" width="10" height="10" fill="rgba(41,51,57,1.00)"/>
<rect x="370" y="430" width="10" height="10" fill="rgba(41,51,57,1.00)"/>
<rect x="380" y="430" width="10" height="10" fill="rgba(41,51,57,1.00)"/>
<rect x="390" y="430" width="10" height="10" fill="rgba(20,27,39,1.00)"/>
<rect x="400" y="430" width="10" height="10" fill="rgba(20,27,39,1.00)"/>
<rect x="410" y="430" width="10" height="10" fill="rgba(20,27,39,1.00)"/>
<rect x="420" y="430" width="10" height="10" fill="rgba(0,0,0,1.00)"/>
<rect x="210" y="440" width="10" height="10" fill="rgba(0,0,0,1.00)"/>
<rect x="220" y="440" width="10" height="10" fill="rgba(20,27,39,1.00)"/>
<rect x="230" y="440" width="10" height="10" fill="rgba(20,27,39,1.00)"/>
<rect x="240" y="440" width="10" height="10" fill="rgba(20,27,39,1.00)"/>
<rect x="250" y="440" width="10" height="10" fill="rgba(41,51,57,1.00)"/>
<rect x="260" y="440" width="10" height="10" fill="rgba(73,82,90,1.00)"/>
<rect x="270" y="440" width="10" height="10" fill="rgba(73,82,90,1.00)"/>
<rect x="280" y="440" width="10" height="10" fill="rgba(73,82,90,1.00)"/>
<rect x="290" y="440" width="10" height="10" fill="rgba(73,82,90,1.00)"/>
<rect x="300" y="440" width="10" height="10" fill="rgba(41,51,57,1.00)"/>
<rect x="310" y="440" width="10" height="10" fill="rgba(41,51,57,1.00)"/>
<rect x="320" y="440" width="10" height="10" fill="rgba(41,51,57,1.00)"/>
<rect x="330" y="440" width="10" height="10" fill="rgba(41,51,57,1.00)"/>
<rect x="340" y="440" width="10" height="10" fill="rgba(41,51,57,1.00)"/>
<rect x="350" y="440" width="10" height="10" fill="rgba(41,51,57,1.00)"/>
<rect x="360" y="440" width="10" height="10" fill="rgba(41,51,57,1.00)"/>
<rect x="370" y="440" width="10" height="10" fill="rgba(20,27,39,1.00)"/>
<rect x="380" y="440" width="10" height="10" fill="rgba(20,27,39,1.00)"/>
<rect x="390" y="440" width="10" height="10" fill="rgba(20,27,39,1.00)"/>
<rect x="400" y="440" width="10" height="10" fill="rgba(20,27,39,1.00)"/>
<rect x="410" y="440" width="10" height="10" fill="rgba(20,27,39,1.00)"/>
<rect x="420" y="440" width="10" height="10" fill="rgba(0,0,0,1.00)"/>
<rect x="220" y="450" width="10" height="10" fill="rgba(0,0,0,1.00)"/>
<rect x="230" y="450" width="10" height="10" fill="rgba(0,0,0,1.00)"/>
<rect x="240" y="450" width="10" height="10" fill="rgba(20,27,39,1.00)"/>
<rect x="250" y="450" width="10" height="10" fill="rgba(41,51,57,1.00)"/>
<rect x="260" y="450" width="10" height="10" fill="rgba(41,51,57,1.00)"/>
<rect x="270" y="450" width="10" height="10" fill="rgba(41,51,57,1.00)"/>
<rect x="280" y="450" width="10" height="10" fill="rgba(41,51,57,1.00)"/>
<rect x="290" y="450" width="10" height="10" fill="rgba(41,51,57,1.00)"/>
<rect x="300" y="450" width="10" height="10" fill="rgba(41,51,57,1.00)"/>
<rect x="310" y="450" width="10" height="10" fill="rgba(41,51,57,1.00)"/>
<rect x="320" y="450" width="10" height="10" fill="rgba(41,51,57,1.00)"/>
<rect x="330" y="450" width="10" height="10" fill="rgba(41,51,57,1.00)"/>
<rect x="340" y="450" width="10" height="10" fill="rgba(20,27,39,1.00)"/>
<rect x="350" y="450" width="10" height="10" fill="rgba(20,27,39,1.00)"/>
<rect x="360" y="450" width="10" height="10" fill="rgba(20,27,39,1.00)"/>
<rect x="370" y="450" width="10" height="10" fill="rgba(20,27,39,1.00)"/>
<rect x="380" y="450" width="10" height="10" fill="rgba(20,27,39,1.00)"/>
<rect x="390" y="450" width="10" height="10" fill="rgba(20,27,39,1.00)"/>
<rect x="400" y="450" width="10" height="10" fill="rgba(0,0,0,1.00)"/>
<rect x="410" y="450" width="10" height="10" fill="rgba(0,0,0,1.00)"/>
<rect x="210" y="460" width="10" height="10" fill="rgba(0,0,0,1.00)"/>
<rect x="220" y="460" width="10" height="10" fill="rgba(20,27,39,1.00)"/>
<rect x="230" y="460" width="10" height="10" fill="rgba(41,51,57,1.00)"/>
<rect x="240" y="460" width="10" height="10" fill="rgba(0,0,0,1.00)"/>
<rect x="250" y="460" width="10" height="10" fill="rgba(0,0,0,1.00)"/>
<rect x="260" y="460" width="10" height="10" fill="rgba(20,27,39,1.00)"/>
<rect x="270" y="460" width="10" height="10" fill="rgba(20,27,39,1.00)"/>
<rect x="280" y="460" width="10" height="10" fill="rgba(41,51,57,1.00)"/>
<rect x="290" y="460" width="10" height="10" fill="rgba(41,51,57,1.00)"/>
<rect x="300" y="460" width="10" height="10" fill="rgba(20,27,39,1.00)"/>
<rect x="310" y="460" width="10" height="10" fill="rgba(20,27,39,1.00)"/>
<rect x="320" y="460" width="10" height="10" fill="rgba(20,27,39,1.00)"/>
<rect x="330" y="460" width="10" height="10" fill="rgba(20,27,39,1.00)"/>
<rect x="340" y="460" width="10" height="10" fill="rgba(20,27,39,1.00)"/>
<rect x="350" y="460" width="10" height="10" fill="rgba(20,27,39,1.00)"/>
<rect x="360" y="460" width="10" height="10" fill="rgba(20,27,39,1.00)"/>
<rect x="370" y="460" width="10" height="10" fill="rgba(20,27,39,1.00)"/>
<rect x="380" y="460" width="10" height="10" fill="rgba(0,0,0,1.00)"/>
<rect x="390" y="460" width="10" height="10" fill="rgba(0,0,0,1.00)"/>
<rect x="400" y="460" width="10" height="10" fill="rgba(20,27,39,1.00)"/>
<rect x="410" y="460" width="10" height="10" fill="rgba(20,27,39,1.00)"/>
<rect x="420" y="460" width="10" height="10" fill="rgba(0,0,0,1.00)"/>
<rect x="210" y="470" width="10" height="10" fill="rgba(0,0,0,1.00)"/>
<rect x="220" y="470" width="10" height="10" fill="rgba(20,27,39,1.00)"/>
<rect x="230" y="470" width="10" height="10" fill="rgba(20,27,39,1.00)"/>
<rect x="240" y="470" width="10" height="10" fill="rgba(41,51,57,1.00)"/>
<rect x="250" y="470" width="10" height="10" fill="rgba(41,51,57,1.00)"/>
<rect x="260" y="470" width="10" height="10" fill="rgba(0,0,0,1.00)"/>
<rect x="270" y="470" width="10" height="10" fill="rgba(0,0,0,1.00)"/>
<rect x="280" y="470" width="10" height="10" fill="rgba(0,0,0,1.00)"/>
<rect x="290" y="470" width="10" height="10" fill="rgba(0,0,0,1.00)"/>
<rect x="300" y="470" width="10" height="10" fill="rgba(0,0,0,1.00)"/>
<rect x="310" y="470" width="10" height="10" fill="rgba(0,0,0,1.00)"/>
<rect x="320" y="470" width="10" height="10" fill="rgba(0,0,0,1.00)"/>
<rect x="330" y="470" width="10" height="10" fill="rgba(0,0,0,1.00)"/>
<rect x="340" y="470" width="10" height="10" fill="rgba(0,0,0,1.00)"/>
<rect x="350" y="470" width="10" height="10" fill="rgba(0,0,0,1.00)"/>
<rect x="360" y="470" width="10" height="10" fill="rgba(0,0,0,1.00)"/>
<rect x="370" y="470" width="10" height="10" fill="rgba(0,0,0,1.00)"/>
<rect x="380" y="470" width="10" height="10" fill="rgba(20,27,39,1.00)"/>
<rect x="390" y="470" width="10" height="10" fill="rgba(20,27,39,1.00)"/>
<rect x="400" y="470" width="10" height="10" fill="rgba(20,27,39,1.00)"/>
<rect x="410" y="470" width="10" height="10" fill="rgba(20,27,39,1.00)"/>
<rect x="420" y="470" width="10" height="10" fill="rgba(0,0,0,1.00)"/>
<rect x="220" y="480" width="10" height="10" fill="rgba(0,0,0,1.00)"/>
<rect x="230" y="480" width="10" height="10" fill="rgba(41,51,57,1.00)"/>
<rect x="240" y="480" width="10" height="10" fill="rgba(41,51,57,1.00)"/>
<rect x="250" y="480" width="10" height="10" fill="rgba(41,51,57,1.00)"/>
<rect x="260" y="480" width="10" height="10" fill="rgba(73,82,90,1.00)"/>
<rect x="270" y="480" width="10" height="10" fill="rgba(73,82,90,1.00)"/>
<rect x="280" y="480" width="10" height="10" fill="rgba(73,82,90,1.00)"/>
<rect x="290" y="480" width="10" height="10" fill="rgba(41,51,57,1.00)"/>
<rect x="300" y="480" width="10" height="10" fill="rgba(41,51,57,1.00)"/>
<rect x="310" y="480" width="10" height="10" fill="rgba(41,51,57,1.00)"/>
<rect x="320" y="480" width="10" height="10" fill="rgba(41,51,57,1.00)"/>
<rect x="330" y="480" width="10" height="10" fill="rgba(41,51,57,1.00)"/>
<rect x="340" y="480" width="10" height="10" fill="rgba(41,51,57,1.00)"/>
<rect x="350" y="480" width="10" height="10" fill="rgba(41,51,57,1.00)"/>
<rect x="360" y="480" width="10" height="10" fill="rgba(41,51,57,1.00)"/>
<rect x="370" y="480" width="10" height="10" fill="rgba(20,27,39,1.00)"/>
<rect x="380" y="480" width="10" height="10" fill="rgba(20,27,39,1.00)"/>
<rect x="390" y="480" width="10" height="10" fill="rgba(20,27,39,1.00)"/>
<rect x="400" y="480" width="10" height="10" fill="rgba(20,27,39,1.00)"/>
<rect x="410" y="480" width="10" height="10" fill="rgba(0,0,0,1.00)"/>
<rect x="230" y="490" width="10" height="10" fill="rgba(0,0,0,1.00)"/>
<rect x="240" y="490" width="10" height="10" fill="rgba(0,0,0,1.00)"/>
<rect x="250" y="490" width="10" height="10" fill="rgba(41,51,57,1.00)"/>
<rect x="260" y="490" width="10" height="10" fill="rgba(41,51,57,1.00)"/>
<rect x="270" y="490" width="10" height="10" fill="rgba(41,51,57,1.00)"/>
<rect x="280" y="490" width="10" height="10" fill="rgba(41,51,57,1.00)"/>
<rect x="290" y="490" width="10" height="10" fill="rgba(41,51,57,1.00)"/>
<rect x="300" y="490" width="10" height="10" fill="rgba(41,51,57,1.00)"/>
<rect x="310" y="490" width="10" height="10" fill="rgba(41,51,57,1.00)"/>
<rect x="320" y="490" width="10" height="10" fill="rgba(41,51,57,1.00)"/>
<rect x="330" y="490" width="10" height="10" fill="rgba(41,51,57,1.00)"/>
<rect x="340" y="490" width="10" height="10" fill="rgba(41,51,57,1.00)"/>
<rect x="350" y="490" width="10" height="10" fill="rgba(20,27,39,1.00)"/>
<rect x="360" y="490" width="10" height="10" fill="rgba(20,27,39,1.00)"/>
<rect x="370" y="490" width="10" height="10" fill="rgba(20,27,39,1.00)"/>
<rect x="380" y="490" width="10" height="10" fill="rgba(20,27,39,1.00)"/>
<rect x="390" y="490" width="10" height="10" fill="rgba(0,0,0,1.00)"/>
<rect x="400" y="490" width="10" height="10" fill="rgba(0,0,0,1.00)"/>
<rect x="250" y="500" width="10" height="10" fill="rgba(0,0,0,1.00)"/>
<rect x="260" y="500" width="10" height="10" fill="rgba(0,0,0,1.00)"/>
<rect x="270" y="500" width="10" height="10" fill="rgba(0,0,0,1.00)"/>
<rect x="280" y="500" width="10" height="10" fill="rgba(0,0,0,1.00)"/>
<rect x="290" y="500" width="10" height="10" fill="rgba(0,0,0,1.00)"/>
<rect x="300" y="500" width="10" height="10" fill="rgba(0,0,0,1.00)"/>
<rect x="310" y="500" width="10" height="10" fill="rgba(0,0,0,1.00)"/>
<rect x="320" y="500" width="10" height="10" fill="rgba(0,0,0,1.00)"/>
<rect x="330" y="500" width="10" height="10" fill="rgba(0,0,0,1.00)"/>
<rect x="340" y="500" width="10" height="10" fill="rgba(0,0,0,1.00)"/>
<rect x="350" y="500" width="10" height="10" fill="rgba(0,0,0,1.00)"/>
<rect x="360" y="500" width="10" height="10" fill="rgba(0,0,0,1.00)"/>
<rect x="370" y="500" width="10" height="10" fill="rgba(0,0,0,1.00)"/>
<rect x="380" y="500" width="10" height="10" fill="rgba(0,0,0,1.00)"/>
</svg>